<svg width="28" height="19" viewBox="0 0 28 19" fill="none" xmlns="http://www.w3.org/2000/svg">
<path d="M23.1905 0.76817L3.86027 16.9882C3.50458 17.2866 3.45818 17.8175 3.7566 18.1731C4.05506 18.5288 4.58594 18.5752 4.94157 18.2768L24.2718 2.05682C24.6275 1.75836 24.6739 1.22748 24.3755 0.871842C24.0771 0.516107 23.5462 0.46971 23.1905 0.76817Z" fill="black"/>
<path d="M3.64474 1.97979L22.9778 18.2022C23.3336 18.5007 23.8642 18.4546 24.1622 18.0994C24.4602 17.7442 24.4134 17.2137 24.0577 16.9152L4.72462 0.692832C4.36893 0.394373 3.83833 0.440354 3.54026 0.795577C3.24219 1.1508 3.28905 1.68133 3.64474 1.97979Z" fill="black"/>
</svg>
