<svg width="23" height="23" viewBox="0 0 23 23" fill="none" xmlns="http://www.w3.org/2000/svg">
<path d="M13.5956 11.0075L21.479 3.1425C21.8242 2.79728 22.0181 2.32905 22.0181 1.84083C22.0181 1.35262 21.8242 0.884392 21.479 0.539168C21.1337 0.193945 20.6655 0 20.1773 0C19.6891 0 19.2209 0.193945 18.8756 0.539168L11.0106 8.4225L3.14563 0.539168C2.80041 0.193945 2.33218 -3.63752e-09 1.84396 0C1.35574 3.63752e-09 0.88752 0.193945 0.542297 0.539168C0.197073 0.884392 0.00312877 1.35262 0.00312877 1.84083C0.00312876 2.32905 0.197073 2.79728 0.542297 3.1425L8.42563 11.0075L0.542297 18.8725C0.370461 19.0429 0.234072 19.2457 0.140996 19.4691C0.0479205 19.6925 0 19.9321 0 20.1742C0 20.4162 0.0479205 20.6558 0.140996 20.8792C0.234072 21.1026 0.370461 21.3054 0.542297 21.4758C0.712729 21.6477 0.915498 21.7841 1.13891 21.8771C1.36231 21.9702 1.60194 22.0181 1.84396 22.0181C2.08599 22.0181 2.32561 21.9702 2.54902 21.8771C2.77243 21.7841 2.9752 21.6477 3.14563 21.4758L11.0106 13.5925L18.8756 21.4758C19.0461 21.6477 19.2488 21.7841 19.4722 21.8771C19.6956 21.9702 19.9353 22.0181 20.1773 22.0181C20.4193 22.0181 20.6589 21.9702 20.8824 21.8771C21.1058 21.7841 21.3085 21.6477 21.479 21.4758C21.6508 21.3054 21.7872 21.1026 21.8803 20.8792C21.9733 20.6558 22.0213 20.4162 22.0213 20.1742C22.0213 19.9321 21.9733 19.6925 21.8803 19.4691C21.7872 19.2457 21.6508 19.0429 21.479 18.8725L13.5956 11.0075Z" fill="white"/>
</svg>
